<svg class="main-svg" xmlns="http://www.w3.org/2000/svg" xmlns:xlink="http://www.w3.org/1999/xlink" width="700" height="500" style="" viewBox="0 0 700 500"><rect x="0" y="0" width="700" height="500" style="fill: rgb(255, 255, 255); fill-opacity: 1;"/><defs id="defs-73af39"><g class="clips"><clipPath id="clip73af39xyplot" class="plotclip"><rect width="540" height="292"/></clipPath><clipPath class="axesclip" id="clip73af39x"><rect x="80" y="0" width="540" height="500"/></clipPath><clipPath class="axesclip" id="clip73af39y"><rect x="0" y="100" width="700" height="292"/></clipPath><clipPath class="axesclip" id="clip73af39xy"><rect x="80" y="100" width="540" height="292"/></clipPath></g><g class="gradients"/><g class="patterns"/></defs><g class="bglayer"><rect class="bg" x="80" y="100" width="540" height="292" style="fill: rgb(229, 236, 246); fill-opacity: 1; stroke-width: 0;"/></g><g class="layer-below"><g class="imagelayer"/><g class="shapelayer"/></g><g class="cartesianlayer"><g class="subplot xy"><g class="layer-subplot"><g class="shapelayer"/><g class="imagelayer"/></g><g class="minor-gridlayer"><g class="x"/><g class="y"/></g><g class="gridlayer"><g class="x"><path class="xgrid crisp" transform="translate(94.21000000000001,0)" d="M0,100v292" style="stroke: rgb(255, 255, 255); stroke-opacity: 1; stroke-width: 1px;"/><path class="xgrid crisp" transform="translate(108.42,0)" d="M0,100v292" style="stroke: rgb(255, 255, 255); stroke-opacity: 1; stroke-width: 1px;"/><path class="xgrid crisp" transform="translate(122.63,0)" d="M0,100v292" style="stroke: rgb(255, 255, 255); stroke-opacity: 1; stroke-width: 1px;"/><path class="xgrid crisp" transform="translate(136.84,0)" d="M0,100v292" style="stroke: rgb(255, 255, 255); stroke-opacity: 1; stroke-width: 1px;"/><path class="xgrid crisp" transform="translate(151.05,0)" d="M0,100v292" style="stroke: rgb(255, 255, 255); stroke-opacity: 1; stroke-width: 1px;"/><path class="xgrid crisp" transform="translate(165.26,0)" d="M0,100v292" style="stroke: rgb(255, 255, 255); stroke-opacity: 1; stroke-width: 1px;"/><path class="xgrid crisp" transform="translate(179.47,0)" d="M0,100v292" style="stroke: rgb(255, 255, 255); stroke-opacity: 1; stroke-width: 1px;"/><path class="xgrid crisp" transform="translate(193.68,0)" d="M0,100v292" style="stroke: rgb(255, 255, 255); stroke-opacity: 1; stroke-width: 1px;"/><path class="xgrid crisp" transform="translate(207.89,0)" d="M0,100v292" style="stroke: rgb(255, 255, 255); stroke-opacity: 1; stroke-width: 1px;"/><path class="xgrid crisp" transform="translate(222.11,0)" d="M0,100v292" style="stroke: rgb(255, 255, 255); stroke-opacity: 1; stroke-width: 1px;"/><path class="xgrid crisp" transform="translate(236.32,0)" d="M0,100v292" style="stroke: rgb(255, 255, 255); stroke-opacity: 1; stroke-width: 1px;"/><path class="xgrid crisp" transform="translate(250.53,0)" d="M0,100v292" style="stroke: rgb(255, 255, 255); stroke-opacity: 1; stroke-width: 1px;"/><path class="xgrid crisp" transform="translate(264.74,0)" d="M0,100v292" style="stroke: rgb(255, 255, 255); stroke-opacity: 1; stroke-width: 1px;"/><path class="xgrid crisp" transform="translate(278.95,0)" d="M0,100v292" style="stroke: rgb(255, 255, 255); stroke-opacity: 1; stroke-width: 1px;"/><path class="xgrid crisp" transform="translate(293.15999999999997,0)" d="M0,100v292" style="stroke: rgb(255, 255, 255); stroke-opacity: 1; stroke-width: 1px;"/><path class="xgrid crisp" transform="translate(307.37,0)" d="M0,100v292" style="stroke: rgb(255, 255, 255); stroke-opacity: 1; stroke-width: 1px;"/><path class="xgrid crisp" transform="translate(321.58000000000004,0)" d="M0,100v292" style="stroke: rgb(255, 255, 255); stroke-opacity: 1; stroke-width: 1px;"/><path class="xgrid crisp" transform="translate(335.78999999999996,0)" d="M0,100v292" style="stroke: rgb(255, 255, 255); stroke-opacity: 1; stroke-width: 1px;"/><path class="xgrid crisp" transform="translate(350,0)" d="M0,100v292" style="stroke: rgb(255, 255, 255); stroke-opacity: 1; stroke-width: 1px;"/><path class="xgrid crisp" transform="translate(364.21,0)" d="M0,100v292" style="stroke: rgb(255, 255, 255); stroke-opacity: 1; stroke-width: 1px;"/><path class="xgrid crisp" transform="translate(378.42,0)" d="M0,100v292" style="stroke: rgb(255, 255, 255); stroke-opacity: 1; stroke-width: 1px;"/><path class="xgrid crisp" transform="translate(392.63,0)" d="M0,100v292" style="stroke: rgb(255, 255, 255); stroke-opacity: 1; stroke-width: 1px;"/><path class="xgrid crisp" transform="translate(406.84,0)" d="M0,100v292" style="stroke: rgb(255, 255, 255); stroke-opacity: 1; stroke-width: 1px;"/><path class="xgrid crisp" transform="translate(421.05,0)" d="M0,100v292" style="stroke: rgb(255, 255, 255); stroke-opacity: 1; stroke-width: 1px;"/><path class="xgrid crisp" transform="translate(435.26,0)" d="M0,100v292" style="stroke: rgb(255, 255, 255); stroke-opacity: 1; stroke-width: 1px;"/><path class="xgrid crisp" transform="translate(449.47,0)" d="M0,100v292" style="stroke: rgb(255, 255, 255); stroke-opacity: 1; stroke-width: 1px;"/><path class="xgrid crisp" transform="translate(463.68,0)" d="M0,100v292" style="stroke: rgb(255, 255, 255); stroke-opacity: 1; stroke-width: 1px;"/><path class="xgrid crisp" transform="translate(477.89,0)" d="M0,100v292" style="stroke: rgb(255, 255, 255); stroke-opacity: 1; stroke-width: 1px;"/><path class="xgrid crisp" transform="translate(492.11,0)" d="M0,100v292" style="stroke: rgb(255, 255, 255); stroke-opacity: 1; stroke-width: 1px;"/><path class="xgrid crisp" transform="translate(506.32,0)" d="M0,100v292" style="stroke: rgb(255, 255, 255); stroke-opacity: 1; stroke-width: 1px;"/><path class="xgrid crisp" transform="translate(520.53,0)" d="M0,100v292" style="stroke: rgb(255, 255, 255); stroke-opacity: 1; stroke-width: 1px;"/><path class="xgrid crisp" transform="translate(534.74,0)" d="M0,100v292" style="stroke: rgb(255, 255, 255); stroke-opacity: 1; stroke-width: 1px;"/><path class="xgrid crisp" transform="translate(548.95,0)" d="M0,100v292" style="stroke: rgb(255, 255, 255); stroke-opacity: 1; stroke-width: 1px;"/><path class="xgrid crisp" transform="translate(563.1600000000001,0)" d="M0,100v292" style="stroke: rgb(255, 255, 255); stroke-opacity: 1; stroke-width: 1px;"/><path class="xgrid crisp" transform="translate(577.37,0)" d="M0,100v292" style="stroke: rgb(255, 255, 255); stroke-opacity: 1; stroke-width: 1px;"/><path class="xgrid crisp" transform="translate(591.5799999999999,0)" d="M0,100v292" style="stroke: rgb(255, 255, 255); stroke-opacity: 1; stroke-width: 1px;"/><path class="xgrid crisp" transform="translate(605.79,0)" d="M0,100v292" style="stroke: rgb(255, 255, 255); stroke-opacity: 1; stroke-width: 1px;"/></g><g class="y"><path class="ygrid crisp" transform="translate(0,329.33000000000004)" d="M80,0h540" style="stroke: rgb(255, 255, 255); stroke-opacity: 1; stroke-width: 1px;"/><path class="ygrid crisp" transform="translate(0,275.90999999999997)" d="M80,0h540" style="stroke: rgb(255, 255, 255); stroke-opacity: 1; stroke-width: 1px;"/><path class="ygrid crisp" transform="translate(0,222.5)" d="M80,0h540" style="stroke: rgb(255, 255, 255); stroke-opacity: 1; stroke-width: 1px;"/><path class="ygrid crisp" transform="translate(0,169.07999999999998)" d="M80,0h540" style="stroke: rgb(255, 255, 255); stroke-opacity: 1; stroke-width: 1px;"/><path class="ygrid crisp" transform="translate(0,115.67)" d="M80,0h540" style="stroke: rgb(255, 255, 255); stroke-opacity: 1; stroke-width: 1px;"/></g></g><g class="zerolinelayer"><path class="yzl zl crisp" transform="translate(0,382.74)" d="M80,0h540" style="stroke: rgb(255, 255, 255); stroke-opacity: 1; stroke-width: 2px;"/></g><g class="layer-between"><g class="shapelayer"/><g class="imagelayer"/></g><path class="xlines-below"/><path class="ylines-below"/><g class="overlines-below"/><g class="xaxislayer-below"/><g class="yaxislayer-below"/><g class="overaxes-below"/><g class="overplot"><g class="xy" transform="translate(80,100)" clip-path="url(#clip73af39xyplot)"><g class="scatterlayer mlayer"><g class="trace scatter trace2a0dd7" style="stroke-miterlimit: 2; opacity: 1;"><g class="fills"/><g class="errorbars"/><g class="lines"><path class="js-line" d="M0,150.27L3.55,163.09L7.11,76.03L10.66,179.65L14.21,87.24L17.76,223.99L21.32,174.84L24.87,84.04L28.42,238.41L31.97,94.72L35.53,111.28L39.08,34.36L42.63,141.19L46.18,110.21L49.74,152.41L53.29,254.43L56.84,97.39L60.39,150.81L63.95,145.47L67.5,101.13L71.05,188.73L74.61,155.61L78.16,203.69L81.71,147.6L85.26,167.37L88.82,214.9L92.37,251.23L95.92,257.1L99.47,173.24L103.03,179.12L106.58,189.27L110.13,176.45L113.68,14.6L117.24,243.21L120.79,134.25L124.34,166.3L127.89,132.11L131.45,172.71L135,148.67L138.55,126.77L142.11,136.92L145.66,251.23L149.21,148.67L152.76,146.53L156.32,226.66L159.87,171.64L163.42,165.76L166.97,233.6L170.53,193L174.08,154.01L177.63,143.86L181.18,71.22L184.74,151.88L188.29,89.38L191.84,189.27L195.39,258.17L198.95,191.4L206.05,151.88L209.61,261.91L213.16,195.14L216.71,144.93L220.26,237.34L223.82,88.85L227.37,154.55L230.92,236.8L234.47,108.61L238.03,127.3L241.58,228.26L245.13,143.86L248.68,111.28L252.24,178.58L255.79,210.1L259.34,188.2L262.89,183.92L266.45,176.45L270,148.14L273.55,277.4L277.11,236.8L280.66,119.83L284.21,26.35L287.76,131.04L291.32,229.86L294.87,183.92L298.42,245.89L301.97,214.9L305.53,199.41L309.08,243.21L316.18,164.7L319.74,249.62L323.29,117.16L326.84,252.3L330.39,174.31L333.95,176.45L337.5,164.16L341.05,218.64L344.61,136.39L348.16,167.37L351.71,184.46L355.26,242.68L358.82,60L362.37,253.9L365.92,212.23L369.47,235.74L373.03,165.76L376.58,237.34L380.13,195.68L383.68,164.7L387.24,166.3L390.79,131.58L394.34,117.69L397.89,146.53L401.45,201.02L405,180.19L408.55,100.6L412.11,158.82L415.66,219.18L419.21,177.51L422.76,159.35L426.32,114.49L429.87,167.37L433.42,151.34L440.53,232.53L444.08,158.29L447.63,227.72L451.18,65.88L458.29,250.69L461.84,162.56L465.39,99.53L468.95,231.46L472.5,104.87L476.05,125.17L479.61,84.57L483.16,209.56L486.71,137.45L490.26,82.44L493.82,270.99L497.37,183.39L500.92,46.11L504.47,128.37L508.03,118.76L511.58,190.87L515.13,172.17L518.68,173.24L522.24,263.51L525.79,182.32L529.34,235.74L532.89,188.2L536.45,176.45L540,240.01" style="vector-effect: none; fill: none; stroke: rgb(54, 100, 139); stroke-opacity: 1; stroke-width: 2px; opacity: 1;"/></g><g class="points"/><g class="text"/></g></g></g></g><path class="xlines-above crisp" d="M0,0" style="fill: none;"/><path class="ylines-above crisp" d="M0,0" style="fill: none;"/><g class="overlines-above"/><g class="xaxislayer-above"><g class="xtick"><text text-anchor="start" x="0" y="405" transform="translate(80,0) rotate(90,0,399)" style="font-family: Arial; font-size: 12px; fill: rgb(42, 63, 95); fill-opacity: 1; white-space: pre; opacity: 1;">8/6/2024</text></g><g class="xtick"><text text-anchor="start" x="0" y="405" transform="translate(94.21000000000001,0) rotate(90,0,399)" style="font-family: Arial; font-size: 12px; fill: rgb(42, 63, 95); fill-opacity: 1; white-space: pre; opacity: 1;">9/12/2024</text></g><g class="xtick"><text text-anchor="start" x="0" y="405" transform="translate(108.42,0) rotate(90,0,399)" style="font-family: Arial; font-size: 12px; fill: rgb(42, 63, 95); fill-opacity: 1; white-space: pre; opacity: 1;">6/15/2024</text></g><g class="xtick"><text text-anchor="start" x="0" y="405" transform="translate(122.63,0) rotate(90,0,399)" style="font-family: Arial; font-size: 12px; fill: rgb(42, 63, 95); fill-opacity: 1; white-space: pre; opacity: 1;">6/26/2024</text></g><g class="xtick"><text text-anchor="start" x="0" y="405" transform="translate(136.84,0) rotate(90,0,399)" style="font-family: Arial; font-size: 12px; fill: rgb(42, 63, 95); fill-opacity: 1; white-space: pre; opacity: 1;">8/21/2024</text></g><g class="xtick"><text text-anchor="start" x="0" y="405" transform="translate(151.05,0) rotate(90,0,399)" style="font-family: Arial; font-size: 12px; fill: rgb(42, 63, 95); fill-opacity: 1; white-space: pre; opacity: 1;">7/18/2024</text></g><g class="xtick"><text text-anchor="start" x="0" y="405" transform="translate(165.26,0) rotate(90,0,399)" style="font-family: Arial; font-size: 12px; fill: rgb(42, 63, 95); fill-opacity: 1; white-space: pre; opacity: 1;">7/22/2024</text></g><g class="xtick"><text text-anchor="start" x="0" y="405" transform="translate(179.47,0) rotate(90,0,399)" style="font-family: Arial; font-size: 12px; fill: rgb(42, 63, 95); fill-opacity: 1; white-space: pre; opacity: 1;">5/7/2024</text></g><g class="xtick"><text text-anchor="start" x="0" y="405" transform="translate(193.68,0) rotate(90,0,399)" style="font-family: Arial; font-size: 12px; fill: rgb(42, 63, 95); fill-opacity: 1; white-space: pre; opacity: 1;">9/4/2024</text></g><g class="xtick"><text text-anchor="start" x="0" y="405" transform="translate(207.89,0) rotate(90,0,399)" style="font-family: Arial; font-size: 12px; fill: rgb(42, 63, 95); fill-opacity: 1; white-space: pre; opacity: 1;">9/13/2024</text></g><g class="xtick"><text text-anchor="start" x="0" y="405" transform="translate(222.11,0) rotate(90,0,399)" style="font-family: Arial; font-size: 12px; fill: rgb(42, 63, 95); fill-opacity: 1; white-space: pre; opacity: 1;">5/10/2024</text></g><g class="xtick"><text text-anchor="start" x="0" y="405" transform="translate(236.32,0) rotate(90,0,399)" style="font-family: Arial; font-size: 12px; fill: rgb(42, 63, 95); fill-opacity: 1; white-space: pre; opacity: 1;">6/29/2024</text></g><g class="xtick"><text text-anchor="start" x="0" y="405" transform="translate(250.53,0) rotate(90,0,399)" style="font-family: Arial; font-size: 12px; fill: rgb(42, 63, 95); fill-opacity: 1; white-space: pre; opacity: 1;">8/26/2024</text></g><g class="xtick"><text text-anchor="start" x="0" y="405" transform="translate(264.74,0) rotate(90,0,399)" style="font-family: Arial; font-size: 12px; fill: rgb(42, 63, 95); fill-opacity: 1; white-space: pre; opacity: 1;">6/20/2024</text></g><g class="xtick"><text text-anchor="start" x="0" y="405" transform="translate(278.95,0) rotate(90,0,399)" style="font-family: Arial; font-size: 12px; fill: rgb(42, 63, 95); fill-opacity: 1; white-space: pre; opacity: 1;">7/15/2024</text></g><g class="xtick"><text text-anchor="start" x="0" y="405" transform="translate(293.15999999999997,0) rotate(90,0,399)" style="font-family: Arial; font-size: 12px; fill: rgb(42, 63, 95); fill-opacity: 1; white-space: pre; opacity: 1;">5/23/2024</text></g><g class="xtick"><text text-anchor="start" x="0" y="405" transform="translate(307.37,0) rotate(90,0,399)" style="font-family: Arial; font-size: 12px; fill: rgb(42, 63, 95); fill-opacity: 1; white-space: pre; opacity: 1;">6/6/2024</text></g><g class="xtick"><text text-anchor="start" x="0" y="405" transform="translate(321.58000000000004,0) rotate(90,0,399)" style="font-family: Arial; font-size: 12px; fill: rgb(42, 63, 95); fill-opacity: 1; white-space: pre; opacity: 1;">8/31/2024</text></g><g class="xtick"><text text-anchor="start" x="0" y="405" transform="translate(335.78999999999996,0) rotate(90,0,399)" style="font-family: Arial; font-size: 12px; fill: rgb(42, 63, 95); fill-opacity: 1; white-space: pre; opacity: 1;">5/14/2024</text></g><g class="xtick"><text text-anchor="start" x="0" y="405" transform="translate(350,0) rotate(90,0,399)" style="font-family: Arial; font-size: 12px; fill: rgb(42, 63, 95); fill-opacity: 1; white-space: pre; opacity: 1;">6/1/2024</text></g><g class="xtick"><text text-anchor="start" x="0" y="405" transform="translate(364.21,0) rotate(90,0,399)" style="font-family: Arial; font-size: 12px; fill: rgb(42, 63, 95); fill-opacity: 1; white-space: pre; opacity: 1;">9/26/2024</text></g><g class="xtick"><text text-anchor="start" x="0" y="405" transform="translate(378.42,0) rotate(90,0,399)" style="font-family: Arial; font-size: 12px; fill: rgb(42, 63, 95); fill-opacity: 1; white-space: pre; opacity: 1;">7/28/2024</text></g><g class="xtick"><text text-anchor="start" x="0" y="405" transform="translate(392.63,0) rotate(90,0,399)" style="font-family: Arial; font-size: 12px; fill: rgb(42, 63, 95); fill-opacity: 1; white-space: pre; opacity: 1;">9/29/2024</text></g><g class="xtick"><text text-anchor="start" x="0" y="405" transform="translate(406.84,0) rotate(90,0,399)" style="font-family: Arial; font-size: 12px; fill: rgb(42, 63, 95); fill-opacity: 1; white-space: pre; opacity: 1;">9/15/2024</text></g><g class="xtick"><text text-anchor="start" x="0" y="405" transform="translate(421.05,0) rotate(90,0,399)" style="font-family: Arial; font-size: 12px; fill: rgb(42, 63, 95); fill-opacity: 1; white-space: pre; opacity: 1;">6/3/2024</text></g><g class="xtick"><text text-anchor="start" x="0" y="405" transform="translate(435.26,0) rotate(90,0,399)" style="font-family: Arial; font-size: 12px; fill: rgb(42, 63, 95); fill-opacity: 1; white-space: pre; opacity: 1;">7/4/2024</text></g><g class="xtick"><text text-anchor="start" x="0" y="405" transform="translate(449.47,0) rotate(90,0,399)" style="font-family: Arial; font-size: 12px; fill: rgb(42, 63, 95); fill-opacity: 1; white-space: pre; opacity: 1;">9/22/2024</text></g><g class="xtick"><text text-anchor="start" x="0" y="405" transform="translate(463.68,0) rotate(90,0,399)" style="font-family: Arial; font-size: 12px; fill: rgb(42, 63, 95); fill-opacity: 1; white-space: pre; opacity: 1;">9/23/2024</text></g><g class="xtick"><text text-anchor="start" x="0" y="405" transform="translate(477.89,0) rotate(90,0,399)" style="font-family: Arial; font-size: 12px; fill: rgb(42, 63, 95); fill-opacity: 1; white-space: pre; opacity: 1;">9/3/2024</text></g><g class="xtick"><text text-anchor="start" x="0" y="405" transform="translate(492.11,0) rotate(90,0,399)" style="font-family: Arial; font-size: 12px; fill: rgb(42, 63, 95); fill-opacity: 1; white-space: pre; opacity: 1;">5/30/2024</text></g><g class="xtick"><text text-anchor="start" x="0" y="405" transform="translate(506.32,0) rotate(90,0,399)" style="font-family: Arial; font-size: 12px; fill: rgb(42, 63, 95); fill-opacity: 1; white-space: pre; opacity: 1;">6/14/2024</text></g><g class="xtick"><text text-anchor="start" x="0" y="405" transform="translate(520.53,0) rotate(90,0,399)" style="font-family: Arial; font-size: 12px; fill: rgb(42, 63, 95); fill-opacity: 1; white-space: pre; opacity: 1;">9/14/2024</text></g><g class="xtick"><text text-anchor="start" x="0" y="405" transform="translate(534.74,0) rotate(90,0,399)" style="font-family: Arial; font-size: 12px; fill: rgb(42, 63, 95); fill-opacity: 1; white-space: pre; opacity: 1;">7/26/2024</text></g><g class="xtick"><text text-anchor="start" x="0" y="405" transform="translate(548.95,0) rotate(90,0,399)" style="font-family: Arial; font-size: 12px; fill: rgb(42, 63, 95); fill-opacity: 1; white-space: pre; opacity: 1;">7/6/2024</text></g><g class="xtick"><text text-anchor="start" x="0" y="405" transform="translate(563.1600000000001,0) rotate(90,0,399)" style="font-family: Arial; font-size: 12px; fill: rgb(42, 63, 95); fill-opacity: 1; white-space: pre; opacity: 1;">8/24/2024</text></g><g class="xtick"><text text-anchor="start" x="0" y="405" transform="translate(577.37,0) rotate(90,0,399)" style="font-family: Arial; font-size: 12px; fill: rgb(42, 63, 95); fill-opacity: 1; white-space: pre; opacity: 1;">7/8/2024</text></g><g class="xtick"><text text-anchor="start" x="0" y="405" transform="translate(591.5799999999999,0) rotate(90,0,399)" style="font-family: Arial; font-size: 12px; fill: rgb(42, 63, 95); fill-opacity: 1; white-space: pre; opacity: 1;">6/19/2024</text></g><g class="xtick"><text text-anchor="start" x="0" y="405" transform="translate(605.79,0) rotate(90,0,399)" style="font-family: Arial; font-size: 12px; fill: rgb(42, 63, 95); fill-opacity: 1; white-space: pre; opacity: 1;">7/3/2024</text></g><g class="xtick"><text text-anchor="start" x="0" y="405" transform="translate(620,0) rotate(90,0,399)" style="font-family: Arial; font-size: 12px; fill: rgb(42, 63, 95); fill-opacity: 1; white-space: pre; opacity: 1;">5/5/2024</text></g></g><g class="yaxislayer-above"><g class="ytick"><text text-anchor="end" x="79" y="4.199999999999999" transform="translate(0,382.74)" style="font-family: Arial; font-size: 12px; fill: rgb(42, 63, 95); fill-opacity: 1; white-space: pre; opacity: 1;">0</text></g><g class="ytick"><text text-anchor="end" x="79" y="4.199999999999999" style="font-family: Arial; font-size: 12px; fill: rgb(42, 63, 95); fill-opacity: 1; white-space: pre; opacity: 1;" transform="translate(0,329.33000000000004)">100</text></g><g class="ytick"><text text-anchor="end" x="79" y="4.199999999999999" style="font-family: Arial; font-size: 12px; fill: rgb(42, 63, 95); fill-opacity: 1; white-space: pre; opacity: 1;" transform="translate(0,275.90999999999997)">200</text></g><g class="ytick"><text text-anchor="end" x="79" y="4.199999999999999" style="font-family: Arial; font-size: 12px; fill: rgb(42, 63, 95); fill-opacity: 1; white-space: pre; opacity: 1;" transform="translate(0,222.5)">300</text></g><g class="ytick"><text text-anchor="end" x="79" y="4.199999999999999" style="font-family: Arial; font-size: 12px; fill: rgb(42, 63, 95); fill-opacity: 1; white-space: pre; opacity: 1;" transform="translate(0,169.07999999999998)">400</text></g><g class="ytick"><text text-anchor="end" x="79" y="4.199999999999999" style="font-family: Arial; font-size: 12px; fill: rgb(42, 63, 95); fill-opacity: 1; white-space: pre; opacity: 1;" transform="translate(0,115.67)">500</text></g></g><g class="overaxes-above"/></g></g><g class="polarlayer"/><g class="smithlayer"/><g class="ternarylayer"/><g class="geolayer"/><g class="funnelarealayer"/><g class="pielayer"/><g class="iciclelayer"/><g class="treemaplayer"/><g class="sunburstlayer"/><g class="glimages"/><defs id="topdefs-73af39"><g class="clips"/></defs><g class="layer-above"><g class="imagelayer"/><g class="shapelayer"/></g><g class="infolayer"><g class="g-gtitle"><text class="gtitle" x="350" y="50" text-anchor="middle" dy="0em" style="opacity: 1; font-family: Arial; font-size: 24px; fill: rgb(42, 63, 95); fill-opacity: 1; white-space: pre;">Job Postings Over Time</text></g><g class="g-xtitle"><text class="xtitle" x="350" y="487.3" text-anchor="middle" style="opacity: 1; font-family: Arial; font-size: 14px; fill: rgb(42, 63, 95); fill-opacity: 1; white-space: pre;">Posted Date</text></g><g class="g-ytitle"><text class="ytitle" transform="rotate(-90,35.6,246)" x="35.6" y="246" text-anchor="middle" style="opacity: 1; font-family: Arial; font-size: 14px; fill: rgb(42, 63, 95); fill-opacity: 1; white-space: pre;">Number of Job Postings</text></g></g></svg>